# xmcd CD database file
#
# Track frame offsets:
#	150
#	17088
#	40397
#	56409
#	73699
#	90323
#	108055
#	124454
#	140513
#	160684
#	177642
#
# Disc length: 2588 seconds
#
# Revision: 1
# Processed by: cddbd v1.4PL0 Copyright (c) Steve Scherf et al.
# Submitted via: CDex 1.50
#
DISCID=920a1a0b
DTITLE=Ivana Banfic - Glamour
DYEAR=2003
DGENRE=Punk
TTITLE0=Lav u srcu
TTITLE1=Trn u oku
TTITLE2=Nema veze zlato
TTITLE3=Navodno
TTITLE4=Kad bi bila
TTITLE5=Ni za zivu glavu ne bi
TTITLE6=I opet sama
TTITLE7=Necu
TTITLE8=Koljena
TTITLE9=Crne oci
TTITLE10=Bonus
EXTD=YEAR: 2003
EXTT0=
EXTT1=
EXTT2=
EXTT3=
EXTT4=
EXTT5=
EXTT6=
EXTT7=
EXTT8=
EXTT9=
EXTT10=
PLAYORDER=
